<svg id="Component_1_1" data-name="Component 1 – 1" xmlns="http://www.w3.org/2000/svg" width="82" height="82" viewBox="0 0 82 82">
  <circle id="Ellipse_58" data-name="Ellipse 58" cx="41" cy="41" r="41" fill="#001641"/>
  <g id="Group_634" data-name="Group 634" transform="translate(11.715 6.677)">
    <g id="Group_631" data-name="Group 631">
      <path id="Path_301" data-name="Path 301" d="M279.006,107.647c-.551-.7-1.046-.7-1.392-.566.18-.3.224-.691-.346-1.41l-.183-.23a1.232,1.232,0,0,0-1.973-.246l-.89.706,4.054,5.111.907-.719c.87-.69.828-1.377.121-2.268Zm-2.537,0-1.349-1.7.322-.255c.439-.348.791-.255,1.159.209l.181.229c.472.595.48.89.023,1.252Zm2.3,2.23-.328.26L276.83,108.1l.326-.259c.493-.391.878-.305,1.32.252l.281.353C279.25,109.066,279.322,109.437,278.772,109.873Zm8.2-9.167c-.342-.971-.969-1.449-1.878-1.129-.87.306-1.152,1.022-.784,2.067l1.093,3.107c.355,1.007.916,1.491,1.869,1.156.916-.322,1.171-1.021.791-2.1Zm.122,4.6c-.413.145-.761-.042-1-.733l-1.123-3.191c-.235-.67-.125-1.041.319-1.2s.778.078,1.007.731l1.112,3.161C287.661,104.8,287.527,105.149,287.092,105.3Zm-5.2-2.572c-.5-.9-1.2-1.267-2.039-.8-.807.447-.965,1.2-.429,2.168l1.6,2.881c.517.934,1.152,1.317,2.035.828.85-.471.985-1.2.43-2.2Zm.886,4.511c-.383.212-.757.085-1.112-.556l-1.639-2.959c-.344-.621-.3-1.005.115-1.233s.78-.053,1.115.553l1.624,2.931C283.253,106.653,283.179,107.017,282.776,107.241Zm28.822-2.214,1.269.727.317-.554-1.269-.727,1.035-1.808,1.341.768.319-.558-1.943-1.113-3.24,5.659,1.961,1.123.4-.507-1.441-.825Zm-10.192-.359.679.145.65-3.043,1.453.31.134-.628-1.453-.31.443-2.075,1.541.329.134-.628-2.219-.474Zm7.254-4.716-1.065-.407-2.326,6.094.649.248L307,103.042l.377.144c.6.231.629.5.328,1.287a15.307,15.307,0,0,0-.635,1.856l.632.241a17.183,17.183,0,0,1,.658-1.9c.311-.815.242-1.175-.089-1.466.374.01.794-.219,1.11-1.046l.107-.279A1.278,1.278,0,0,0,308.659,99.952Zm.163,1.712-.1.271c-.248.651-.528.928-1.108.707l-.4-.152.82-2.147.366.14C309.01,100.717,309.035,101.108,308.822,101.665Zm8.011,2.732-4.017,5.136,1.781,1.392.467-.445-1.308-1.023,1.552-1.985,1.152.9.393-.5-1.152-.9,1.283-1.641,1.218.952.4-.506Zm-26.348-.155.842-5.619-.1-.519-2.5.488.123.63,1.741-.34-.86,5.686.088.453,2.586-.505-.03-.644Zm4.22-3.1,1.46-.07-.03-.637-1.46.07-.1-2.08,1.544-.074-.031-.641-2.236.107.311,6.511,2.256-.108.064-.642-1.658.079Zm3.531.036,1.636.135.052-.642-1.636-.135Z" transform="translate(-267.199 -97.711)" fill="#fff"/>
      <path id="Path_302" data-name="Path 302" d="M359.517,955.032c-.868-.163-1.415.32-1.608,1.346l-.614,3.261c-.177.941-.135,1.764.975,1.973,1.159.218,1.474-.647,1.627-1.462l.041-.218-.7-.131-.051.269c-.114.6-.286,1.02-.786.927-.482-.091-.543-.54-.422-1.184l.627-3.328c.106-.565.3-.923.78-.833.507.1.507.533.411,1.041l-.057.3.693.13.047-.25C360.642,956.035,360.593,955.234,359.517,955.032Zm5.105.566c-.45.95-1.2,2.5-1.491,3.1h-.01l.1-3.143-.684-.021-.2,6.517.685.021.07-2.294.485-.9.969,3.237.754.023-1.237-3.972,1.324-2.548Zm-9.434-1.736c-.867-.314-1.539.062-1.916,1.1l-1.122,3.1c-.363,1-.235,1.735.714,2.078.914.331,1.553-.048,1.943-1.126l1.118-3.09C356.277,954.956,356.094,954.19,355.188,953.862Zm.083,1.793-1.142,3.152c-.263.727-.586.911-1.021.754-.411-.149-.562-.514-.312-1.2l1.152-3.182c.242-.668.563-.884,1.005-.724S355.507,955,355.271,955.655Zm-4-3.567c-.772-.429-1.444-.142-1.951.77l-1.61,2.9c-.465.837-.685,1.631.3,2.179,1.031.573,1.6-.149,2-.874l.107-.193-.62-.344-.132.239c-.3.537-.593.878-1.038.631-.428-.238-.344-.684-.027-1.256l1.643-2.96c.279-.5.575-.781,1-.544.451.25.313.665.062,1.117l-.148.268.616.342.124-.223C352.02,953.393,352.226,952.618,351.269,952.087Zm30.958,4.433-1.431.8-2.879-5.144-.605.339,3.184,5.69,1.969-1.1Zm-7.426-2.878,2.481,6.032.642-.264-2.481-6.032Zm-5.121,1.512-2.773.371.085.637,1.046-.14.779,5.825.688-.092-.779-5.824,1.04-.139Zm1.515-.359.631,6.579.68-.18-.231-2.092,1.062-.281.856,1.927.7-.186-2.745-6.02Zm1.008,3.667c-.135-1.2-.284-2.675-.39-3.168l.027-.007c.218.581.66,1.611,1.247,2.942Z" transform="translate(-335.297 -893.523)" fill="#fff"/>
      <path id="Path_303" data-name="Path 303" d="M176.9,486.249l-3.882-17.1h-.992l-.584,20.227h1.285c-.014-.448-.669-5.779-.669-8.467l.062-6.562,3.376,15.028h.978l3.913-15.054v15.054h1.921V469.144h-.986Zm12.09-17.51c-2.592,0-4.745,4.97-4.745,10.547s2.152,10.489,4.745,10.489,4.738-4.912,4.738-10.489S191.575,468.739,188.989,468.739Zm.318,20.689c-2.2-.737-3.134-6.372-3.134-11.457,0-5.013.881-8.6,2.492-8.885,2.21.751,3.127,6.444,3.127,11.457C191.792,485.614,190.889,489.168,189.307,489.428Zm24.444-20.285h-2.157c-.225,1.04.589,2.21-.018,3.453l-3.863,8.012V469.144H205.8v20.227h1.914v-7.889l1.271-2.586,2.881,10.475h2.2l-3.7-13.321Zm4.169,19.94v-19.94h-1.914v20.227h6.182V488.09c-.188.015-1.629.755-2.3.869C219.424,489.037,217.921,489.083,217.921,489.083Zm13.4-19.94h-2.173c-.225,1.04.6,2.21,0,3.453l-3.157,6.573-3.746-10.026h-2.351l4.229,11.3v8.929h1.921v-9.433l.512-1.042,1.387-2.846h0l.124-.254Zm-30.149,19.374c-2.26,0-3.611-4.608-3.611-10.879,0-5.158.917-8.351,2.636-8.553.506.173,2.08,2.919,2.715,4.118l.549-3.207a4.918,4.918,0,0,0-2.982-1.257c-2.874,0-4.846,5.071-4.846,10.6,0,5.317,1.8,10.431,4.651,10.431,1.69,0,2.911-1.951,3.546-4.161l-.272-.289C203.01,487.492,202.336,488.518,201.173,488.518Z" transform="translate(-171.44 -443.385)" fill="#fff"/>
    </g>
    <g id="Group_633" data-name="Group 633" transform="translate(57.507 41.89)">
      <g id="Group_632" data-name="Group 632">
        <path id="Path_304" data-name="Path 304" d="M1015.111,710.741a2.1,2.1,0,1,1-2.1,2.105A2.111,2.111,0,0,1,1015.111,710.741Zm0,3.854a1.749,1.749,0,1,0-1.749-1.749A1.746,1.746,0,0,0,1015.111,714.6Zm-.731-2.714a.111.111,0,0,1,.111-.111h.831a.661.661,0,0,1,.719.655.62.62,0,0,1-.474.638c.117.228.234.462.351.69a.109.109,0,0,1-.1.158h-.2a.138.138,0,0,1-.105-.082l-.327-.731h-.433v.7a.111.111,0,0,1-.111.111h-.152a.111.111,0,0,1-.111-.111Zm.942.877a.331.331,0,0,0,.351-.333.321.321,0,0,0-.351-.333h-.573v.667Z" transform="translate(-1013.011 -710.741)" fill="#fff"/>
      </g>
    </g>
  </g>
</svg>
